# xmcd CD database file
#
# Track frame offsets:
#	187
#	14290
#	38590
#	54140
#	69572
#	116075
#	128187
#	152300
#
# Disc length: 2959 seconds
#
# Revision: 0
# Processed by: cddbd v1.5.1PL2 Copyright (c) Steve Scherf et al.
# Submitted via: CDex 1.51
#
DISCID=590b8d08
DTITLE=Flying Dutchman - Funk Jazz Classic
DYEAR=1900
DGENRE=Jazz
TTITLE0=The revlution will not be televised
TTITLE1=A chance for peace
TTITLE2=This is me me (not the you you)
TTITLE3=See saw affair
TTITLE4=Watermelon man
TTITLE5=Peace and love
TTITLE6=Song for my father
TTITLE7=Onsaya Joy
EXTD=
EXTT0=
EXTT1=
EXTT2=
EXTT3=
EXTT4=
EXTT5=
EXTT6=
EXTT7=
PLAYORDER=
